<svg xmlns="http://www.w3.org/2000/svg" viewBox="0 0 64 72" fill="none">
  
  <path d="M32 4&#xA;           C 32 4, 14 8, 6 10&#xA;           C 6 10, 4 38, 14 54&#xA;           C 22 66, 32 70, 32 70&#xA;           C 32 70, 42 66, 50 54&#xA;           C 60 38, 58 10, 58 10&#xA;           C 50 8, 32 4, 32 4 Z" fill="oklch(0.66 0.14 38)"></path>
  <path d="M32 18&#xA;           C 32 18, 22 21, 18 22&#xA;           C 18 22, 17 38, 22 46&#xA;           C 26 53, 32 56, 32 56&#xA;           C 32 56, 38 53, 42 46&#xA;           C 47 38, 46 22, 46 22&#xA;           C 42 21, 32 18, 32 18 Z" fill="oklch(0.945 0.018 78)"></path>
</svg>